<svg width="1500" height="1000" xmlns="http://www.w3.org/2000/svg"><path fill="#fff" d="M0 0h1500v1000H0z"/><rect x="485" y="533" width="6" height="16" fill="#95E1D3" rx="0" transform="matrix(-.56527 .57602 -.86561 -.887 1294.179 907.798)"/><rect x="684" y="889" width="8" height="9" fill="#95E1D3" rx="0" transform="matrix(.41652 .95419 -.89641 .3473 1113.592 48.022)"/><rect x="979" y="705" width="8" height="8" fill="#95E1D3" rx="0" transform="matrix(.38511 1.01626 -.90915 .19754 1198.06 -166.64)"/><rect x="388" y="127" width="6" height="6" fill="#EAFFD0" rx="0" transform="matrix(.25811 .92764 -.96309 .41301 416.344 -355.342)"/><rect x="688" y="240" width="8" height="10" fill="#95E1D3" rx="0" transform="matrix(-.82255 .62171 -.55564 -.79575 1407.67 -87.519)"/><rect x="398" y="535" width="5" height="10" fill="#FCE38A" rx="0" transform="matrix(-.66609 .74598 -.74076 -.67169 1111.459 568.905)"/><rect x="739" y="234" width="7" height="13" fill="#95E1D3" rx="0" transform="matrix(-.29237 .90475 -.9563 -.461 1189.577 -189.486)"/><rect x="1312" y="52" width="8" height="9" fill="#95E1D3" rx="0" transform="matrix(.0785 1.00506 -1.00046 -.07028 1241.07 -1423.767)"/><rect x="1139" y="784" width="8" height="15" fill="#f38181" rx="0" transform="matrix(-.97162 .17535 -.19241 -.99449 2505.77 1217.567)"/><rect x="1289" y="93" width="6" height="10" fill="#95E1D3" rx="0" transform="matrix(-.79542 .50008 -.622 -.86616 2392.582 -485.767)"/><rect x="446" y="551" width="6" height="16" fill="#95E1D3" rx="0" transform="matrix(-.8005 .48845 -.60317 -.88119 1156.31 887.4)"/><rect x="500" y="179" width="5" height="9" fill="#FCE38A" rx="0" transform="matrix(.75092 .77821 -.67691 .63018 271.428 -296.856)"/><rect x="168" y="407" width="8" height="20" fill="#FCE38A" rx="0" transform="matrix(.78995 .39676 -.6594 .9347 263.623 -71.343)"/><rect x="717" y="37" width="9" height="14" fill="#f38181" rx="0" transform="matrix(.82173 .66099 -.5676 .76038 143.301 -554.947)"/><rect x="919" y="738" width="5" height="11" fill="#95E1D3" rx="0" transform="matrix(.10502 .9781 -.99815 .22581 1543.705 -406.323)"/><rect x="1418" y="439" width="6" height="15" fill="#EAFFD0" rx="0" transform="matrix(1.01574 .10467 .11041 .99589 28.026 -221.374)"/><rect x="1267" y="829" width="6" height="17" fill="#EAFFD0" rx="0" transform="matrix(-.54262 .65857 -.89424 -.7576 2927.056 746.717)"/><rect x="505" y="279" width="8" height="22" fill="#FCE38A" rx="0" transform="matrix(.99265 .2818 -.08691 .98274 21.997 -30.236)"/><rect x="380" y="653" width="7" height="14" fill="#EAFFD0" rx="0" transform="matrix(.50016 .83918 -.86683 .54497 704.884 -8.115)"/><rect x="731" y="183" width="8" height="10" fill="#95E1D3" rx="0" transform="matrix(.89381 .53024 -.45553 .84857 174.884 -335.592)"/><rect x="847" y="576" width="5" height="5" fill="#95E1D3" rx="0" transform="matrix(-.05259 1 -1.00092 .01746 1421.296 -266.27)"/><rect x="538" y="853" width="7" height="16" fill="#95E1D3" rx="0" transform="matrix(-.78577 .27214 -.74206 -1.01563 1807.47 1764.042)"/><rect x="1289" y="849" width="9" height="12" fill="#f38181" rx="0" transform="matrix(.63819 .73854 -.7589 .6887 1175.757 -870.932)"/><rect x="983" y="764" width="5" height="12" fill="#95E1D3" rx="0" transform="matrix(.01784 .98163 -1.02218 -.1908 1918.667 -50.47)"/><rect x="399" y="502" width="9" height="12" fill="#FCE38A" rx="0" transform="matrix(.3194 1.01624 -1.00636 -.07106 899.841 212.481)"/><rect x="166" y="394" width="7" height="19" fill="#f38181" rx="0" transform="matrix(-.21506 .86635 -1.00368 -.60663 643.234 559.79)"/><rect x="596" y="209" width="9" height="13" fill="#f38181" rx="0" transform="matrix(.97868 .63279 -.28156 .83974 94.997 -150.336)"/><rect x="1423" y="851" width="9" height="20" fill="#EAFFD0" rx="0" transform="matrix(-.1562 .97564 -.98602 -.24325 2481.797 -172.248)"/><rect x="184" y="460" width="5" height="12" fill="#95E1D3" rx="0" transform="matrix(.58749 1.0292 -.94084 .05394 662.32 295.418)"/><rect x="970" y="467" width="8" height="8" fill="#EAFFD0" rx="0" transform="matrix(-.9237 .08945 -.6216 -1.0224 2379.212 1090.293)"/><rect x="1029" y="648" width="6" height="16" fill="#EAFFD0" rx="0" transform="matrix(.37606 1.0094 -.89693 .25167 1115.407 -254.874)"/><rect x="134" y="725" width="5" height="6" fill="#f38181" rx="0" transform="matrix(-.01802 .98263 -1.01112 -.35765 901.934 895.97)"/><rect x="83" y="475" width="7" height="13" fill="#95E1D3" rx="0" transform="matrix(-.83834 .26925 -.5853 -1.00485 476.245 966.85)"/><rect x="432" y="375" width="8" height="15" fill="#95E1D3" rx="0" transform="matrix(-.92321 .19093 -.48814 -.98223 1131.803 690.183)"/><rect x="247" y="568" width="9" height="12" fill="#FCE38A" rx="0" transform="matrix(.54221 .71978 -.8657 .69508 512.386 -14.784)"/><rect x="1294" y="349" width="8" height="13" fill="#FCE38A" rx="0" transform="matrix(.92718 .32601 -.3746 .94682 227.688 -472.286)"/><rect x="356" y="954" width="9" height="25" fill="#FCE38A" rx="0" transform="matrix(.9563 .1409 -.29237 1.00261 298.33 -110.42)"/><rect x="1480" y="405" width="8" height="23" fill="#95E1D3" rx="0" transform="matrix(-.36753 .76897 -.99204 -.64524 2588.993 -326.076)"/><rect x="616" y="887" width="9" height="11" fill="#FCE38A" rx="0" transform="matrix(1.013 .50191 -.23784 .86933 405.453 -140.529)"/><rect x="1445" y="252" width="6" height="12" fill="#f38181" rx="0" transform="matrix(-.08915 .96725 -1.00997 -.25917 1878.655 -999.827)"/><rect x="68" y="550" width="6" height="12" fill="#FCE38A" rx="0" transform="matrix(-1.0135 -.10583 -.19385 -1.00692 330.46 1134.606)"/><rect x="440" y="73" width="5" height="9" fill="#FCE38A" rx="0" transform="matrix(-.39195 .76884 -.95995 -.66834 713.313 -124.9)"/><rect x="492" y="106" width="7" height="20" fill="#EAFFD0" rx="0" transform="matrix(.86355 .4068 -.51865 .91368 116.49 -200.205)"/><rect x="267" y="408" width="5" height="6" fill="#EAFFD0" rx="0" transform="matrix(.32557 1.0513 -.94552 .01835 570.368 207.698)"/><rect x="1017" y="100" width="5" height="13" fill="#95E1D3" rx="0" transform="matrix(.34297 .99708 -.94245 .17581 774.888 -767.278)"/><rect x="773" y="623" width="5" height="6" fill="#f38181" rx="0" transform="matrix(.71313 .53284 -.7355 .85272 606.373 -402.527)"/><rect x="946" y="493" width="9" height="22" fill="#FCE38A" rx="0" transform="matrix(.82846 .59511 -.54008 .8191 366.457 -323.937)"/><rect x="1223" y="757" width="6" height="10" fill="#95E1D3" rx="0" transform="matrix(1.00645 .07002 .11188 1.00137 82.273 -194.157)"/><rect x="612" y="46" width="9" height="24" fill="#95E1D3" rx="0" transform="matrix(.89073 .811 -.5859 .58922 132.258 -433.042)"/><rect x="1451" y="892" width="9" height="13" fill="#f38181" rx="0" transform="matrix(-.80513 .5339 -.58454 -.85442 3096.118 1067.817)"/><rect x="718" y="42" width="9" height="24" fill="#FCE38A" rx="0" transform="matrix(.60294 .65766 -.82693 .75655 330.977 -512.536)"/><rect x="547" y="593" width="8" height="10" fill="#95E1D3" rx="0" transform="matrix(-1.02668 .22842 .06915 -.9894 1013.853 966.646)"/><rect x="1309" y="679" width="5" height="10" fill="#EAFFD0" rx="0" transform="matrix(-.56634 .83718 -.81248 -.56469 2671.34 -212.04)"/><rect x="453" y="720" width="7" height="9" fill="#FCE38A" rx="0" transform="matrix(-.76217 .32314 -.74894 -.99451 1499.395 1437.078)"/><rect x="542" y="975" width="8" height="22" fill="#f38181" rx="0" transform="matrix(-.46524 .8516 -.87212 -.55304 1565.243 1162.595)"/><rect x="30" y="888" width="8" height="18" fill="#FCE38A" rx="0" transform="matrix(-.9976 -.03524 -.19282 -1.00921 319.776 1808.24)"/><rect x="722" y="456" width="7" height="12" fill="#EAFFD0" rx="0" transform="matrix(.98099 .37928 -.20857 .93874 120.219 -131.955)"/><rect x="131" y="239" width="7" height="12" fill="#95E1D3" rx="0" transform="matrix(-1.00353 -.08982 -.33747 -1.0267 401.267 542.155)"/><rect x="661" y="235" width="9" height="17" fill="#95E1D3" rx="0" transform="matrix(-.97626 -.03613 -.27917 -1.03465 1405.29 697.801)"/><rect x="194" y="105" width="5" height="14" fill="#FCE38A" rx="0" transform="matrix(-.99575 .31378 -.12232 -.96573 404.513 123.855)"/><rect x="1071" y="936" width="6" height="15" fill="#95E1D3" rx="0" transform="matrix(.49152 .98904 -.93323 .15665 1713.298 -210.246)"/><rect x="245" y="164" width="9" height="22" fill="#95E1D3" rx="0" transform="matrix(-.707 .68241 -.70723 -.7318 561.288 124.09)"/><rect x="447" y="123" width="7" height="15" fill="#FCE38A" rx="0" transform="matrix(.98003 .80456 -.4493 .65152 121.026 -196.267)"/><rect x="877" y="454" width="7" height="20" fill="#f38181" rx="0" transform="matrix(.98053 .2989 -.1384 .97767 47.232 -65.667)"/><rect x="277" y="714" width="5" height="13" fill="#95E1D3" rx="0" transform="matrix(.23295 .89441 -.99936 .45572 824.19 117.71)"/><rect x="769" y="878" width="5" height="7" fill="#EAFFD0" rx="0" transform="matrix(.92076 .43897 -.39021 .90003 493.508 -290.974)"/><rect x="225" y="67" width="8" height="19" fill="#EAFFD0" rx="0" transform="matrix(.98854 .461 -.2291 .90475 28.324 -57.902)"/><rect x="90" y="952" width="5" height="12" fill="#95E1D3" rx="0" transform="matrix(.37673 .99386 -.93295 .19319 985.381 695.645)"/><rect x="1165" y="105" width="7" height="15" fill="#95E1D3" rx="0" transform="matrix(-.42177 .92275 -.90468 -.39169 1764.187 -1003.381)"/><rect x="516" y="438" width="7" height="11" fill="#f38181" rx="0" transform="matrix(-.84516 .32636 -.60955 -.94783 1339.674 730.643)"/><rect x="299" y="522" width="8" height="17" fill="#FCE38A" rx="0" transform="matrix(.24566 1.00076 -.99066 .03495 840.648 224.609)"/><rect x="1164" y="319" width="7" height="7" fill="#FCE38A" rx="0" transform="matrix(1.02198 .6491 -.32264 .77357 208.775 -520.725)"/><rect x="884" y="262" width="9" height="23" fill="#95E1D3" rx="0" transform="matrix(-.97332 .15838 -.16848 -1 1741.154 547)"/><rect x="667" y="460" width="6" height="11" fill="#EAFFD0" rx="0" transform="matrix(.56185 .89318 -.83332 .4551 708.322 -297.93)"/><rect x="468" y="598" width="7" height="11" fill="#f38181" rx="0" transform="matrix(-.1505 .9563 -.9968 -.31072 1292.459 290.57)"/><rect x="422" y="551" width="7" height="19" fill="#95E1D3" rx="0" transform="matrix(-.10296 .98402 -.99622 -.19127 1111.755 219.253)"/><rect x="11" y="868" width="5" height="8" fill="#f38181" rx="0" transform="matrix(.51066 .89976 -.85121 .45845 687.752 461.98)"/><rect x="1278" y="731" width="7" height="9" fill="#EAFFD0" rx="0" transform="matrix(-.90489 .31378 -.40194 -.96573 2669.512 1269.642)"/><rect x="106" y="257" width="7" height="19" fill="#EAFFD0" rx="0" transform="matrix(.0521 .99451 -1.02244 -.32314 397.254 277.194)"/><rect x="266" y="58" width="5" height="6" fill="#95E1D3" rx="0" transform="matrix(.98854 .34538 -.17936 .94893 21.13 -127.355)"/><rect x="296" y="797" width="8" height="10" fill="#f38181" rx="0" transform="matrix(.69777 1.01496 -.86223 .17896 1033.594 428.782)"/><rect x="136" y="783" width="9" height="19" fill="#f38181" rx="0" transform="matrix(-.58456 .68241 -.83852 -.7318 1083.525 1271.666)"/><rect x="926" y="985" width="6" height="16" fill="#EAFFD0" rx="0" transform="matrix(.9172 .64633 -.45412 .77026 836.149 -469.953)"/><rect x="707" y="572" width="7" height="11" fill="#f38181" rx="0" transform="matrix(-.87475 .3439 -.50444 -.94487 1668.927 953.494)"/><rect x="300" y="604" width="5" height="12" fill="#EAFFD0" rx="0" transform="matrix(.8696 .73685 -.54622 .68712 463.59 5.103)"/><rect x="135" y="403" width="7" height="8" fill="#95E1D3" rx="0" transform="matrix(.1453 .92742 -1.01659 .39367 477.317 101.325)"/><rect x="77" y="984" width="7" height="14" fill="#95E1D3" rx="0" transform="matrix(.52564 .95853 -.79815 .44697 649.527 498.61)"/><rect x="1158" y="987" width="9" height="18" fill="#FCE38A" rx="0" transform="matrix(.765 .82916 -.69003 .55928 1195.085 -504.652)"/><rect x="351" y="895" width="9" height="11" fill="#f38181" rx="0" transform="matrix(.952 .2105 -.27172 .99034 335.61 -122.441)"/><rect x="1368" y="364" width="5" height="10" fill="#95E1D3" rx="0" transform="matrix(.7356 .8656 -.71329 .5201 694.518 -816.598)"/><rect x="91" y="626" width="7" height="19" fill="#f38181" rx="0" transform="matrix(-.88469 .57674 -.47043 -.82366 466.143 1094.505)"/><rect x="1201" y="260" width="8" height="22" fill="#FCE38A" rx="0" transform="matrix(-.9691 -.25046 .10589 -1.00452 2271.145 1167.904)"/><rect x="29" y="530" width="7" height="12" fill="#95E1D3" rx="0" transform="matrix(-.91825 .25945 -.42734 -.96828 347.972 1048.841)"/><rect x="590" y="834" width="7" height="13" fill="#f38181" rx="0" transform="matrix(-.38396 .88222 -.89357 -.55127 1448.333 950.43)"/><rect x="348" y="879" width="7" height="20" fill="#EAFFD0" rx="0" transform="matrix(-.58714 .84072 -.80817 -.54597 1291.427 1054.275)"/><rect x="392" y="548" width="6" height="13" fill="#f38181" rx="0" transform="matrix(.78578 .867 -.6624 .54176 519.02 -4.408)"/><rect x="1263" y="207" width="6" height="15" fill="#EAFFD0" rx="0" transform="matrix(-.0111 .92252 -1.07904 -.41073 1624.042 -687.388)"/><rect x="1317" y="618" width="8" height="16" fill="#EAFFD0" rx="0" transform="matrix(-1.00357 -.21338 -.03498 -1.00388 2684.864 1841.28)"/><rect x="34" y="34" width="6" height="9" fill="#FCE38A" rx="0" transform="matrix(-.94977 .25945 -.3097 -.96828 88.474 63.592)"/><rect x="1274" y="424" width="5" height="9" fill="#FCE38A" rx="0" transform="matrix(.94236 .62171 -.4023 .79575 320.598 -526.696)"/><rect x="1461" y="503" width="6" height="6" fill="#EAFFD0" rx="0" transform="matrix(.57903 .79575 -.80428 .62171 897.771 -767.82)"/><rect x="1380" y="394" width="9" height="10" fill="#FCE38A" rx="0" transform="matrix(-.88498 .39804 -.4274 -.93773 2686.39 491.183)"/><rect x="921" y="59" width="7" height="20" fill="#95E1D3" rx="0" transform="matrix(.99593 .6165 -.3473 .7891 61.403 -506.957)"/><rect x="1199" y="545" width="9" height="12" fill="#f38181" rx="0" transform="matrix(.24137 .95762 -.97046 .29277 1383.195 -699.737)"/><rect x="1177" y="471" width="9" height="12" fill="#f38181" rx="0" transform="matrix(-1.01358 -.12814 -.45101 -1.04362 2808.819 1510.1)"/><rect x="629" y="197" width="9" height="18" fill="#EAFFD0" rx="0" transform="matrix(-.35837 .96493 -.93358 -.27669 1052.844 -403.711)"/><rect x="40" y="917" width="7" height="15" fill="#95E1D3" rx="0" transform="matrix(-.90374 .52992 -.44079 -.84805 393.15 1685.469)"/><rect x="123" y="68" width="9" height="18" fill="#95E1D3" rx="0" transform="matrix(-.07086 .94566 -1.03306 -.32562 237.521 -20.725)"/><rect x="1313" y="85" width="6" height="12" fill="#EAFFD0" rx="0" transform="matrix(-.62944 .45604 -.90226 -.93501 2343.225 -46.702)"/><rect x="1294" y="233" width="9" height="12" fill="#f38181" rx="0" transform="matrix(-1.02349 .49229 -.1849 -.88811 2670.103 -416.939)"/><rect x="247" y="381" width="5" height="11" fill="#FCE38A" rx="0" transform="matrix(1.06426 .20947 .23305 .9855 29.43 -16.022)"/><rect x="621" y="706" width="7" height="17" fill="#EAFFD0" rx="0" transform="matrix(-.00264 1.01404 -.98602 -.05314 1229.41 229.322)"/><rect x="640" y="259" width="9" height="24" fill="#95E1D3" rx="0" transform="matrix(.50252 .9636 -.89367 .27631 631.887 -469.994)"/><rect x="825" y="933" width="6" height="16" fill="#95E1D3" rx="0" transform="matrix(.85592 .51574 -.51446 .85834 551.812 -250.344)"/><rect x="228" y="890" width="6" height="15" fill="#f38181" rx="0" transform="matrix(-.06336 .96493 -1.01817 -.27669 1427.66 902.72)"/><rect x="675" y="889" width="8" height="11" fill="#FCE38A" rx="0" transform="matrix(.84911 .89658 -.62512 .51764 832.116 4.635)"/><rect x="1068" y="974" width="5" height="7" fill="#FCE38A" rx="0" transform="matrix(-.24698 .76079 -1.07592 -.73469 2697.375 1249.833)"/><rect x="985" y="728" width="7" height="10" fill="#95E1D3" rx="0" transform="matrix(.05156 .98703 -1.02316 -.19186 1805.124 1.846)"/><rect x="1315" y="469" width="5" height="9" fill="#f38181" rx="0" transform="matrix(.91705 .36189 -.37427 .94276 182.178 -264.522)"/><rect x="1284" y="210" width="9" height="19" fill="#f38181" rx="0" transform="matrix(-.03357 .97089 -1.02162 -.24207 1599.506 -1023.35)"/><rect x="686" y="35" width="6" height="16" fill="#95E1D3" rx="0" transform="matrix(-.66534 .68575 -.74476 -.73538 1173.725 -470.28)"/><rect x="388" y="923" width="7" height="7" fill="#EAFFD0" rx="0" transform="matrix(-.58436 .92177 -.83682 -.39127 1252.102 907.62)"/><rect x="166" y="795" width="5" height="12" fill="#FCE38A" rx="0" transform="matrix(.08781 .95762 -1.0711 -.29277 1290.506 882.983)"/><rect x="505" y="639" width="9" height="21" fill="#EAFFD0" rx="0" transform="matrix(1.00516 .30415 -.00009 .99484 11.317 -5.52)"/><rect x="375" y="566" width="5" height="7" fill="#95E1D3" rx="0" transform="matrix(-.6005 .9323 -.83001 -.37667 1002.416 392.397)"/><rect x="572" y="197" width="9" height="15" fill="#EAFFD0" rx="0" transform="matrix(-.7749 .52859 -.6022 -.87971 1110.894 212.767)"/><rect x="167" y="282" width="9" height="12" fill="#95E1D3" rx="0" transform="matrix(.43617 .7718 -.92969 .64761 326.93 -51.934)"/><rect x="1240" y="105" width="5" height="14" fill="#EAFFD0" rx="0" transform="matrix(-.64331 .71592 -.73063 -.74136 2056.839 -384.714)"/><rect x="1384" y="157" width="7" height="19" fill="#EAFFD0" rx="0" transform="matrix(.48697 1.03134 -.92701 .09023 941.834 -907.723)"/><rect x="23" y="754" width="6" height="10" fill="#95E1D3" rx="0" transform="matrix(.86181 .42268 -.51767 .90645 330.144 59.564)"/><rect x="1376" y="80" width="9" height="14" fill="#f38181" rx="0" transform="matrix(-.42262 .9582 -.9063 -.31134 2042.773 -1378.211)"/><rect x="456" y="799" width="9" height="15" fill="#EAFFD0" rx="0" transform="matrix(.0554 1.00536 -.99564 -.01755 1371.645 309.286)"/><rect x="435" y="686" width="9" height="24" fill="#FCE38A" rx="0" transform="matrix(1.0536 .24192 .09218 .9703 152.445 -85.591)"/><rect x="1093" y="542" width="5" height="7" fill="#f38181" rx="0" transform="matrix(.67343 .89223 -.77766 .45461 899.162 -622.516)"/><rect x="1258" y="868" width="8" height="14" fill="#95E1D3" rx="0" transform="matrix(-.99794 -.01758 -.30034 -1.00736 2984.4 1933.581)"/><rect x="1447" y="431" width="5" height="11" fill="#95E1D3" rx="0" transform="matrix(.9204 .29237 -.4098 .9563 240.65 -404.72)"/><rect x="243" y="602" width="8" height="20" fill="#EAFFD0" rx="0" transform="matrix(.23068 .90852 -.99312 .42365 714.227 111.05)"/><rect x="955" y="451" width="9" height="12" fill="#FCE38A" rx="0" transform="matrix(-.56713 .51117 -.97399 -.88537 2176.361 575.096)"/><rect x="1113" y="886" width="7" height="11" fill="#FCE38A" rx="0" transform="matrix(-.68779 .69988 -.7166 -.72474 2642.752 619.108)"/><rect x="498" y="963" width="5" height="6" fill="#95E1D3" rx="0" transform="matrix(1.07877 .37829 .02656 .9363 232.089 -57.454)"/><rect x="25" y="388" width="8" height="23" fill="#FCE38A" rx="0" transform="matrix(.20893 .94487 -.9823 .3439 401.528 231.661)"/><rect x="319" y="949" width="8" height="14" fill="#EAFFD0" rx="0" transform="matrix(-.0375 .96441 -1.02326 -.35102 1403.507 1054.638)"/><rect x="1259" y="840" width="7" height="14" fill="#EAFFD0" rx="0" transform="matrix(-.73954 .37902 -.71183 -.98737 2888.718 1639.51)"/><rect x="1254" y="634" width="9" height="9" fill="#f38181" rx="0" transform="matrix(1.048 .91963 -.50647 .50976 623.619 -435.424)"/><rect x="281" y="168" width="8" height="21" fill="#f38181" rx="0" transform="matrix(-.45783 .80463 -.8978 -.60633 586.928 92.404)"/><rect x="1306" y="214" width="5" height="6" fill="#EAFFD0" rx="0" transform="matrix(1.0097 -.1409 -.08756 1.00261 5.625 -23.435)"/><rect x="879" y="49" width="9" height="22" fill="#EAFFD0" rx="0" transform="matrix(.56967 .92846 -.8469 .37512 447.846 -736.496)"/><rect x="807" y="71" width="5" height="5" fill="#EAFFD0" rx="0" transform="matrix(-.53419 .69508 -.88551 -.71978 1330.504 -407.997)"/><rect x="175" y="408" width="6" height="10" fill="#f38181" rx="0" transform="matrix(-.88355 .34286 -.48915 -.94199 574.512 753.46)"/><rect x="735" y="177" width="9" height="15" fill="#EAFFD0" rx="0" transform="matrix(.98648 -.05262 .17949 1.00413 1.534 -39.571)"/><rect x="968" y="231" width="8" height="19" fill="#EAFFD0" rx="0" transform="matrix(-.56163 .97797 -.87204 -.26205 1713.923 -801.011)"/><rect x="55" y="417" width="8" height="14" fill="#FCE38A" rx="0" transform="matrix(.36559 .93198 -.9178 .3956 350.169 210.623)"/><rect x="759" y="216" width="5" height="10" fill="#95E1D3" rx="0" transform="matrix(.15695 .9846 -1.06663 -.31992 968.055 -254.032)"/><rect x="861" y="911" width="8" height="18" fill="#95E1D3" rx="0" transform="matrix(.62957 .75482 -.77753 .65616 986.744 -321.49)"/><rect x="427" y="237" width="7" height="13" fill="#EAFFD0" rx="0" transform="matrix(-1.00808 .34333 -.143 -.94328 874.026 287.723)"/><rect x="1036" y="45" width="7" height="13" fill="#f38181" rx="0" transform="matrix(-.7142 .63738 -.65479 -.8158 1757.441 -290.509)"/><rect x="187" y="821" width="8" height="23" fill="#EAFFD0" rx="0" transform="matrix(1.01209 .12217 .05726 .99497 154.254 -32.502)"/><rect x="47" y="360" width="5" height="14" fill="#f38181" rx="0" transform="matrix(1.06336 .67332 -.26193 .77456 194.39 60.835)"/><rect x="374" y="334" width="9" height="23" fill="#EAFFD0" rx="0" transform="matrix(.61478 .8272 -.77842 .57921 471.567 -220.909)"/><rect x="1050" y="113" width="7" height="11" fill="#FCE38A" rx="0" transform="matrix(.78172 .72033 -.63336 .69561 317.154 -667.583)"/><rect x="709" y="544" width="7" height="12" fill="#EAFFD0" rx="0" transform="matrix(1.07864 .2443 .23285 .97983 39.758 -62.835)"/><rect x="677" y="884" width="5" height="9" fill="#EAFFD0" rx="0" transform="matrix(.53901 .98737 -.80588 .37902 911.291 114.793)"/><rect x="1132" y="742" width="8" height="17" fill="#95E1D3" rx="0" transform="matrix(-1.01214 .4574 -.19984 -.8977 2338.992 765.133)"/><rect x="868" y="309" width="6" height="13" fill="#EAFFD0" rx="0" transform="matrix(-.69464 .70721 -.71935 -.70721 1713.477 -92.561)"/><rect x="146" y="497" width="5" height="9" fill="#EAFFD0" rx="0" transform="matrix(.08557 .97797 -1.04546 -.26205 762.144 511.208)"/><rect x="652" y="894" width="9" height="15" fill="#EAFFD0" rx="0" transform="matrix(.80858 1.0298 -.82848 .18158 1252.066 262.448)"/><rect x="1013" y="529" width="7" height="15" fill="#EAFFD0" rx="0" transform="matrix(.0525 .9927 -1.00091 .12189 1472.931 -555.713)"/><rect x="459" y="514" width="7" height="17" fill="#FCE38A" rx="0" transform="matrix(.47133 .9783 -.922 .20794 873.764 -46.686)"/><rect x="917" y="385" width="7" height="8" fill="#FCE38A" rx="0" transform="matrix(.99376 .19107 -.12123 .98297 94.745 -217.5)"/><rect x="460" y="129" width="6" height="17" fill="#EAFFD0" rx="0" transform="matrix(-.94277 .2118 -.286 -.99646 914.915 266.446)"/><rect x="483" y="718" width="6" height="6" fill="#95E1D3" rx="0" transform="matrix(1.00458 .43206 -.16016 .92656 170.889 -53.725)"/><rect x="905" y="860" width="5" height="7" fill="#EAFFD0" rx="0" transform="matrix(-.96788 .19224 -.2225 -.989 1892.673 1654.468)"/><rect x="829" y="918" width="7" height="13" fill="#95E1D3" rx="0" transform="matrix(-.9357 .42268 -.35923 -.90645 1895.888 1396.095)"/><rect x="829" y="296" width="8" height="16" fill="#95E1D3" rx="0" transform="matrix(.69579 1.04733 -.85702 .1472 650.349 -326.346)"/><rect x="302" y="620" width="9" height="24" fill="#f38181" rx="0" transform="matrix(1.01724 .83513 -.43088 .62931 447.972 72.014)"/><rect x="759" y="943" width="5" height="6" fill="#95E1D3" rx="0" transform="matrix(-.70149 .61566 -.7264 -.78801 2115.816 1222.632)"/><rect x="442" y="810" width="7" height="16" fill="#EAFFD0" rx="0" transform="matrix(.99376 .06977 -.122 .99772 74.28 -36.99)"/><rect x="649" y="899" width="6" height="16" fill="#f38181" rx="0" transform="matrix(.9671 .26795 -.12278 1 0 0)"/><rect x="741" y="814" width="7" height="8" fill="#FCE38A" rx="0" transform="matrix(.14408 .99255 -1.0252 -.12187 1695.027 178.739)"/><rect x="1055" y="924" width="7" height="11" fill="#EAFFD0" rx="0" transform="matrix(-.85378 .47206 -.51266 -.88781 2384.201 1366.3)"/><rect x="1001" y="661" width="7" height="17" fill="#EAFFD0" rx="0" transform="matrix(-.23933 .85862 -1.0151 -.53652 2070.63 325.318)"/><rect x="93" y="735" width="6" height="12" fill="#EAFFD0" rx="0" transform="matrix(.33582 1.04171 -.98934 -.09114 891.448 737.879)"/><rect x="1283" y="550" width="8" height="15" fill="#EAFFD0" rx="0" transform="matrix(-.03864 1.02451 -.96715 -.23653 1756.118 -211.013)"/><rect x="504" y="546" width="8" height="23" fill="#EAFFD0" rx="0" transform="matrix(-.76045 .25586 -.85838 -1.0262 1596.777 1174.55)"/><rect x="1193" y="591" width="8" height="23" fill="#FCE38A" rx="0" transform="matrix(-.62177 .76884 -.76017 -.66834 2266.985 317.551)"/><rect x="104" y="936" width="6" height="12" fill="#f38181" rx="0" transform="matrix(1.02552 .10478 .21367 .99695 32.727 -.857)"/><rect x="395" y="593" width="6" height="8" fill="#95E1D3" rx="0" transform="matrix(-.2829 .74833 -1.06313 -.72265 1322.58 844.713)"/><rect x="310" y="301" width="8" height="21" fill="#EAFFD0" rx="0" transform="matrix(-.73981 .5339 -.68907 -.85442 785.424 448.56)"/><rect x="1326" y="239" width="8" height="23" fill="#FCE38A" rx="0" transform="matrix(.78327 .62028 -.60962 .79393 451.67 -936.662)"/><rect x="199" y="637" width="6" height="10" fill="#EAFFD0" rx="0" transform="matrix(-.08747 .99269 -1.01966 .13951 774.845 337.785)"/><rect x="72" y="43" width="8" height="14" fill="#95E1D3" rx="0" transform="matrix(.21223 .97925 -1.08204 -.2808 133.776 4.39)"/><rect x="361" y="113" width="5" height="9" fill="#FCE38A" rx="0" transform="matrix(.59333 .64524 -.8427 .76897 231.73 -239.202)"/><rect x="970" y="13" width="6" height="17" fill="#FCE38A" rx="0" transform="matrix(.93888 .3306 -.29818 .9601 36.71 -492.373)"/><rect x="327" y="215" width="6" height="17" fill="#EAFFD0" rx="0" transform="matrix(.57975 .94577 -.79921 .42108 300.958 -94.294)"/><rect x="119" y="60" width="8" height="23" fill="#f38181" rx="0" transform="matrix(-.03372 .98054 -1.02702 .20842 189.489 -72.609)"/><rect x="439" y="87" width="5" height="5" fill="#f38181" rx="0" transform="matrix(.23055 1.01071 -1.03005 -.17822 465.655 -238.85)"/><rect x="1413" y="835" width="8" height="9" fill="#EAFFD0" rx="0" transform="matrix(-.73237 .54539 -.70581 -.83982 3175.717 845.98)"/><rect x="312" y="528" width="7" height="19" fill="#f38181" rx="0" transform="matrix(-.92137 .05535 -.48561 -1.05617 935.12 1196.364)"/><rect x="834" y="183" width="6" height="16" fill="#f38181" rx="0" transform="matrix(.7075 .87676 -.7484 .486 430.815 -694.198)"/><rect x="925" y="226" width="9" height="23" fill="#EAFFD0" rx="0" transform="matrix(.94124 .64761 -.4224 .7718 210.627 -433.632)"/><rect x="434" y="196" width="5" height="13" fill="#FCE38A" rx="0" transform="matrix(.8259 .53652 -.54213 .85862 137.879 -136.429)"/><rect x="434" y="976" width="7" height="16" fill="#95E1D3" rx="0" transform="matrix(.8913 .50069 -.4535 .86721 594.807 -111.317)"/><rect x="688" y="928" width="8" height="23" fill="#f38181" rx="0" transform="matrix(-.31244 .80276 -1.0016 -.62718 2038.587 1107.741)"/><rect x="1176" y="527" width="6" height="11" fill="#FCE38A" rx="0" transform="matrix(-.92448 .19107 -.47764 -.98297 2685.38 768.873)"/><rect x="1124" y="393" width="9" height="13" fill="#95E1D3" rx="0" transform="matrix(-.5706 .89395 -.81523 -.47532 2105.815 -598.172)"/><rect x="473" y="235" width="8" height="16" fill="#FCE38A" rx="0" transform="matrix(-1.06136 -.21861 -.41897 -1.02849 1206.754 752.186)"/><rect x="1158" y="790" width="7" height="7" fill="#EAFFD0" rx="0" transform="matrix(-.01098 .9204 -1.08159 -.4098 2318.689 192.232)"/><rect x="390" y="217" width="8" height="16" fill="#FCE38A" rx="0" transform="matrix(.15829 .98776 -1.04604 -.20995 631.723 -61.565)"/><rect x="1208" y="588" width="9" height="16" fill="#EAFFD0" rx="0" transform="matrix(-.99513 .27835 -.12223 -.9707 2484.51 666.642)"/><rect x="346" y="240" width="6" height="9" fill="#EAFFD0" rx="0" transform="matrix(1.0658 .22998 .26819 .99614 2.848 -5.135)"/><rect x="837" y="607" width="5" height="7" fill="#EAFFD0" rx="0" transform="matrix(.15524 .98054 -.98685 .20842 1229.48 -281.197)"/><rect x="997" y="350" width="5" height="12" fill="#f38181" rx="0" transform="matrix(-1.00603 -.1769 -.05249 -1.00324 2042.924 1084.246)"/><rect x="573" y="37" width="6" height="9" fill="#95E1D3" rx="0" transform="matrix(.4029 .90374 -.91 .44079 367.35 -436.81)"/><rect x="1351" y="542" width="9" height="15" fill="#FCE38A" rx="0" transform="matrix(.52062 1.05002 -.97965 -.05503 1434.934 -403.137)"/><rect x="362" y="71" width="5" height="6" fill="#EAFFD0" rx="0" transform="matrix(.18271 .98496 -1.04749 -.17367 403.086 -265.803)"/><rect x="125" y="436" width="9" height="13" fill="#f38181" rx="0" transform="matrix(-.66372 .93874 -.7971 -.37928 501.33 468.252)"/><rect x="570" y="583" width="9" height="26" fill="#95E1D3" rx="0" transform="matrix(-.97002 -.19953 .0215 -1.02648 1024.214 1498.053)"/><rect x="662" y="382" width="7" height="17" fill="#EAFFD0" rx="0" transform="matrix(-.55873 .83982 -.82789 -.54539 1330.877 79.45)"/><rect x="1204" y="262" width="8" height="10" fill="#FCE38A" rx="0" transform="matrix(-.32543 .94027 -.94508 -.34223 1848.059 -735.281)"/><rect x="1042" y="907" width="6" height="16" fill="#95E1D3" rx="0" transform="matrix(-.78998 .35886 -.72864 -.93486 2871.148 1450.156)"/><rect x="489" y="24" width="5" height="6" fill="#95E1D3" rx="0" transform="matrix(.94592 .5886 -.39702 .81013 37.655 -309.925)"/><rect x="826" y="926" width="6" height="15" fill="#EAFFD0" rx="0" transform="matrix(.0536 1.00786 -.98562 .12375 1787.4 -163.71)"/><rect x="769" y="611" width="8" height="12" fill="#EAFFD0" rx="0" transform="matrix(.67706 .91091 -.75282 .46413 755.07 -209.199)"/><rect x="467" y="580" width="9" height="15" fill="#f38181" rx="0" transform="matrix(-.48542 .89934 -.87517 -.43864 1161.697 437.625)"/><rect x="339" y="657" width="7" height="9" fill="#95E1D3" rx="0" transform="matrix(.83982 .5 -.54539 .86603 380.967 -82.626)"/><rect x="549" y="111" width="7" height="9" fill="#f38181" rx="0" transform="matrix(1.03685 .53065 -.22518 .84921 49.81 -246.81)"/><rect x="38" y="606" width="9" height="15" fill="#FCE38A" rx="0" transform="matrix(-.94739 .44079 -.32625 -.90374 272.285 1144.747)"/><rect x="954" y="973" width="9" height="20" fill="#EAFFD0" rx="0" transform="matrix(-.59935 .7576 -.79896 -.65857 2460.769 820.36)"/><rect x="624" y="545" width="5" height="9" fill="#FCE38A" rx="0" transform="matrix(-.04231 .93758 -1.04774 -.41744 1338.684 336.129)"/><rect x="381" y="601" width="6" height="8" fill="#f38181" rx="0" transform="matrix(-.1411 1.00107 -.99154 -.05246 937.988 279.182)"/><rect x="399" y="655" width="7" height="8" fill="#95E1D3" rx="0" transform="matrix(.94367 .47206 -.3436 .88781 273.598 -73.766)"/><rect x="170" y="282" width="8" height="17" fill="#95E1D3" rx="0" transform="matrix(.59249 .85442 -.77075 .57631 235.937 17.796)"/><rect x="557" y="939" width="9" height="19" fill="#EAFFD0" rx="0" transform="matrix(.7381 .51574 -.71054 .85834 658.95 -184.657)"/><rect x="1222" y="275" width="5" height="7" fill="#f38181" rx="0" transform="matrix(-.99376 .06977 -.122 -.99772 2485.805 492.308)"/><rect x="846" y="860" width="5" height="13" fill="#f38181" rx="0" transform="matrix(.80184 .68293 -.6044 .73236 739.603 -303.09)"/><rect x="1353" y="116" width="8" height="14" fill="#f38181" rx="0" transform="matrix(-.63997 .75887 -.76144 -.65967 2295.855 -683.016)"/><rect x="590" y="10" width="9" height="22" fill="#FCE38A" rx="0" transform="matrix(-.62738 .65646 -.8016 -.75517 990.926 -332.646)"/><rect x="334" y="785" width="9" height="23" fill="#95E1D3" rx="0" transform="matrix(.5735 .81928 -.81902 .57366 810.525 56.343)"/><rect x="733" y="512" width="9" height="20" fill="#f38181" rx="0" transform="matrix(.98774 -.05246 .21366 1.00107 6.12 -13.437)"/><rect x="979" y="628" width="5" height="11" fill="#95E1D3" rx="0" transform="matrix(-.16957 .8271 -1.08586 -.60092 2077.3 411.015)"/><rect x="1247" y="706" width="8" height="11" fill="#95E1D3" rx="0" transform="matrix(.018 .98496 -1.0121 .17367 1851.653 -666.088)"/><rect x="160" y="397" width="5" height="11" fill="#EAFFD0" rx="0" transform="matrix(.16046 .99315 -1.0266 -.12194 651.4 295.87)"/><rect x="21" y="488" width="6" height="7" fill="#f38181" rx="0" transform="matrix(.94019 .43053 -.30648 .92327 117.377 32.045)"/><rect x="240" y="913" width="7" height="9" fill="#EAFFD0" rx="0" transform="matrix(-.84556 .40773 -.55344 -.91578 1165.07 1641.415)"/><rect x="257" y="209" width="9" height="15" fill="#95E1D3" rx="0" transform="matrix(.54558 .78011 -.84006 .63172 297.326 -147.147)"/><rect x="1107" y="350" width="6" height="12" fill="#FCE38A" rx="0" transform="matrix(-.10453 .9723 -.99452 -.31592 1580.076 -374.852)"/><rect x="1023" y="122" width="5" height="12" fill="#FCE38A" rx="0" transform="matrix(-.2475 .87971 -.98802 -.52859 1431.285 -469.733)"/><rect x="638" y="558" width="7" height="8" fill="#EAFFD0" rx="0" transform="matrix(-.54505 .86655 -.83932 -.5003 1453.423 264.876)"/><rect x="696" y="78" width="8" height="11" fill="#95E1D3" rx="0" transform="matrix(.13986 1.00046 -.9971 .01746 694.797 -593.834)"/><rect x="277" y="832" width="6" height="7" fill="#95E1D3" rx="0" transform="matrix(.99272 .33869 -.0695 .98362 44.125 -.86)"/><rect x="79" y="838" width="5" height="14" fill="#FCE38A" rx="0" transform="matrix(.17608 .9657 -1.08935 -.29525 1282.55 1027.231)"/><rect x="335" y="543" width="7" height="17" fill="#f38181" rx="0" transform="matrix(-.74513 .48488 -.7181 -.87475 1125.737 875.702)"/><rect x="639" y="364" width="8" height="13" fill="#FCE38A" rx="0" transform="matrix(1.00541 .0349 .14196 .99954 13.76 -33.498)"/><rect x="398" y="502" width="7" height="10" fill="#EAFFD0" rx="0" transform="matrix(-.47664 .67169 -.95942 -.74598 1245.045 650.658)"/><rect x="1018" y="803" width="5" height="12" fill="#FCE38A" rx="0" transform="matrix(-.01901 .97446 -1.01966 -.33553 1939.17 340.446)"/><rect x="944" y="210" width="6" height="14" fill="#95E1D3" rx="0" transform="matrix(.96593 .4118 -.25882 .92493 88.432 -223.701)"/><rect x="890" y="11" width="7" height="13" fill="#95E1D3" rx="0" transform="matrix(-.93485 .43944 -.35888 -.90099 1735.858 -421.853)"/><rect x="1385" y="547" width="6" height="12" fill="#EAFFD0" rx="0" transform="matrix(.03374 .9757 -1.03269 -.22526 2045.244 -603.971)"/><rect x="642" y="434" width="9" height="19" fill="#EAFFD0" rx="0" transform="matrix(.98236 .82308 -.47468 .62024 372.687 -202.51)"/><rect x="259" y="125" width="8" height="9" fill="#EAFFD0" rx="0" transform="matrix(-1.03997 .31378 .01378 -.96573 521.56 125.663)"/><rect x="1011" y="817" width="8" height="20" fill="#EAFFD0" rx="0" transform="matrix(1.0078 .4073 -.19168 .9148 372.488 -396.137)"/><rect x="548" y="575" width="9" height="26" fill="#FCE38A" rx="0" transform="matrix(-.2734 .84183 -1.00348 -.56782 1402.162 554.19)"/><rect x="1382" y="438" width="5" height="13" fill="#95E1D3" rx="0" transform="matrix(-.64116 .52468 -.83887 -.87321 2783.772 375.345)"/><rect x="683" y="188" width="7" height="11" fill="#95E1D3" rx="0" transform="matrix(1.0166 .06985 .2221 .99893 -.13 -83.725)"/><rect x="585" y="150" width="8" height="23" fill="#FCE38A" rx="0" transform="matrix(.47577 1.00598 -.95243 .08801 523.493 -362.46)"/><rect x="882" y="493" width="5" height="6" fill="#FCE38A" rx="0" transform="matrix(-.18677 .87632 -1.02892 -.52654 1668.379 170.07)"/><rect x="1238" y="605" width="8" height="20" fill="#FCE38A" rx="0" transform="matrix(.91836 .70883 -.49241 .70883 566.269 -614.455)"/><rect x="1284" y="526" width="7" height="19" fill="#EAFFD0" rx="0" transform="matrix(.14054 .96126 -1 .27564 1566.794 -849.728)"/><rect x="525" y="19" width="9" height="23" fill="#FCE38A" rx="0" transform="matrix(.78801 .6019 -.61566 .79876 131.026 -321.814)"/><rect x="520" y="983" width="8" height="16" fill="#EAFFD0" rx="0" transform="matrix(-.77743 .4232 -.69575 -.90755 1874.793 1696.09)"/><rect x="156" y="782" width="8" height="8" fill="#FCE38A" rx="0" transform="matrix(-.55075 .51274 -.9567 -.92502 1194.27 1486.116)"/><rect x="24" y="633" width="6" height="14" fill="#FCE38A" rx="0" transform="matrix(-.43395 .91311 -.8928 -.4258 677.027 884.538)"/><rect x="1367" y="498" width="9" height="14" fill="#f38181" rx="0" transform="matrix(-.88861 .12617 -.68876 -1.02756 3204.802 1218.37)"/><rect x="778" y="898" width="6" height="13" fill="#f38181" rx="0" transform="matrix(.96838 .61905 -.3759 .79235 556.472 -213.576)"/><rect x="160" y="812" width="6" height="6" fill="#FCE38A" rx="0" transform="matrix(.3436 .89155 -.94657 .45427 748.461 305.142)"/><rect x="1355" y="436" width="5" height="6" fill="#95E1D3" rx="0" transform="matrix(-.8995 .29349 -.46513 -.95996 2868.58 343.245)"/><rect x="109" y="528" width="6" height="8" fill="#EAFFD0" rx="0" transform="matrix(-.8336 .46947 -.56227 -.88295 560.408 949.147)"/><rect x="1251" y="686" width="7" height="11" fill="#EAFFD0" rx="0" transform="matrix(.58012 1.03134 -.91886 .09023 1399.378 -328.564)"/><rect x="686" y="202" width="5" height="12" fill="#FCE38A" rx="0" transform="matrix(-.78647 .5339 -.6144 -.85442 1352.672 102.666)"/><rect x="1054" y="50" width="9" height="20" fill="#95E1D3" rx="0" transform="matrix(-.64016 .70149 -.76264 -.7264 1774.576 -490.175)"/><rect x="742" y="571" width="7" height="13" fill="#95E1D3" rx="0" transform="matrix(-.26193 .77456 -1.06336 -.67332 1755.717 561.017)"/><rect x="611" y="597" width="9" height="26" fill="#f38181" rx="0" transform="matrix(.74829 .87582 -.727 .48547 758.536 -192.95)"/><rect x="810" y="671" width="7" height="11" fill="#FCE38A" rx="0" transform="matrix(.97437 .1397 -.22495 .99405 173.03 -180.797)"/><rect x="889" y="693" width="5" height="11" fill="#FCE38A" rx="0" transform="matrix(.43955 .8272 -.90112 .57921 1119.064 -568.824)"/><rect x="757" y="514" width="7" height="12" fill="#FCE38A" rx="0" transform="matrix(-.84016 .37512 -.58633 -.92846 1803.054 757.374)"/><rect x="389" y="200" width="9" height="12" fill="#f38181" rx="0" transform="matrix(.19147 .95864 -.9846 .29309 514.75 -259.117)"/><rect x="116" y="347" width="6" height="6" fill="#EAFFD0" rx="0" transform="matrix(-.25882 .97949 -.96593 -.2082 487.874 300.073)"/><rect x="475" y="601" width="6" height="13" fill="#FCE38A" rx="0" transform="matrix(-.7225 .62171 -.68371 -.79575 1363.45 726.564)"/><rect x="722" y="185" width="6" height="8" fill="#95E1D3" rx="0" transform="matrix(-.56043 .86616 -.83096 -.50008 1279.122 -357.105)"/><rect x="549" y="563" width="9" height="22" fill="#FCE38A" rx="0" transform="matrix(.458 1.0345 -1.064 -.2199 1159.157 318.202)"/><rect x="1474" y="729" width="9" height="24" fill="#EAFFD0" rx="0" transform="matrix(-1.03166 .31287 -.0211 -.96291 2948.218 757.77)"/><rect x="759" y="411" width="5" height="9" fill="#FCE38A" rx="0" transform="matrix(.92846 .32557 -.37512 .94552 188.568 -225.283)"/><rect x="70" y="80" width="5" height="13" fill="#f38181" rx="0" transform="matrix(-.01256 .91521 -1.08678 -.42677 196.978 67.252)"/><rect x="1017" y="267" width="7" height="16" fill="#EAFFD0" rx="0" transform="matrix(.91265 .24251 -.46307 .97267 184.236 -311.327)"/><rect x="217" y="606" width="8" height="10" fill="#95E1D3" rx="0" transform="matrix(-.57556 .49092 -.9545 -.9233 1113.222 1134.203)"/><rect x="398" y="689" width="6" height="16" fill="#f38181" rx="0" transform="matrix(-1.00519 -.01746 -.32332 -1.00046 1246.811 1415.325)"/><rect x="564" y="86" width="8" height="20" fill="#EAFFD0" rx="0" transform="matrix(.7206 .80874 -.6735 .63186 207.477 -292.889)"/><rect x="1030" y="437" width="6" height="7" fill="#f38181" rx="0" transform="matrix(1.0198 .1046 .14176 .99513 18.402 -69.824)"/><rect x="473" y="692" width="7" height="20" fill="#95E1D3" rx="0" transform="matrix(-.19408 1.00168 -1.0153 .08764 1166.767 113.096)"/><rect x="192" y="848" width="7" height="10" fill="#EAFFD0" rx="0" transform="matrix(.21234 1.00261 -1.02724 -.1409 1202.046 808.148)"/><rect x="310" y="916" width="9" height="25" fill="#EAFFD0" rx="0" transform="matrix(.05213 1.00986 -.99571 -.10614 1205.448 764.905)"/><rect x="1409" y="122" width="9" height="26" fill="#95E1D3" rx="0" transform="matrix(.95636 .41582 -.25686 .93395 73.547 -278.402)"/><rect x="1472" y="467" width="9" height="14" fill="#f38181" rx="0" transform="matrix(-1.01374 -.16448 -.32092 -1.03852 3276.461 1688.863)"/><rect x="1284" y="596" width="7" height="16" fill="#f38181" rx="0" transform="matrix(-.85315 .31072 -.59262 -.9563 2887.58 916.873)"/><rect x="555" y="629" width="6" height="10" fill="#f38181" rx="0" transform="matrix(-.7299 .64436 -.68207 -.76792 1470.773 722.288)"/><rect x="48" y="499" width="7" height="16" fill="#EAFFD0" rx="0" transform="matrix(.61552 .81013 -.78718 .5886 463.02 164.163)"/><rect x="1291" y="140" width="6" height="6" fill="#95E1D3" rx="0" transform="matrix(-1.02126 -.07002 -.3236 -1.00137 2740.112 490.017)"/><rect x="1377" y="710" width="7" height="20" fill="#FCE38A" rx="0" transform="matrix(-.82972 .34966 -.58027 -.96069 2996.837 1222.421)"/><rect x="919" y="159" width="6" height="7" fill="#f38181" rx="0" transform="matrix(-1.02125 -.21525 -.15877 -1.01265 1932.44 772.562)"/><rect x="10" y="553" width="8" height="10" fill="#EAFFD0" rx="0" transform="matrix(.99692 -.14132 -.01735 1.00554 19.42 -3.584)"/><rect x="331" y="229" width="8" height="10" fill="#95E1D3" rx="0" transform="matrix(.57022 1.01793 -.89208 .16122 408.71 -61.206)"/><rect x="1442" y="848" width="6" height="16" fill="#EAFFD0" rx="0" transform="matrix(-.05096 .9461 -1.03943 -.32577 2670.128 -282.711)"/><rect x="38" y="681" width="8" height="16" fill="#EAFFD0" rx="0" transform="matrix(1.0267 .32557 -.08982 .94552 232.555 23.864)"/><rect x="980" y="85" width="9" height="15" fill="#FCE38A" rx="0" transform="matrix(.42328 .99589 -.95964 .10467 695.156 -846.037)"/><rect x="329" y="790" width="6" height="10" fill="#f38181" rx="0" transform="matrix(-.83087 .461 -.53855 -.90475 976.31 1419.768)"/><rect x="523" y="826" width="8" height="16" fill="#EAFFD0" rx="0" transform="matrix(.67572 .9113 -.78224 .42495 980.103 54.73)"/><rect x="93" y="938" width="5" height="5" fill="#f38181" rx="0" transform="matrix(.03949 1.05183 -.95488 -.11055 818.157 976.907)"/><rect x="1075" y="468" width="9" height="18" fill="#95E1D3" rx="0" transform="matrix(-.92108 .14283 -.44728 -1.01632 2350.701 1056.816)"/><rect x="285" y="429" width="5" height="6" fill="#EAFFD0" rx="0" transform="matrix(.91011 .91963 -.58291 .50976 379.79 40.805)"/><rect x="758" y="599" width="5" height="8" fill="#95E1D3" rx="0" transform="matrix(-.79858 .47062 -.62295 -.8851 1812.428 831.992)"/><rect x="938" y="464" width="9" height="18" fill="#95E1D3" rx="0" transform="matrix(-.6531 .39388 -.92234 -.9749 2217.754 869.128)"/><rect x="67" y="689" width="8" height="17" fill="#FCE38A" rx="0" transform="matrix(-.61499 .82115 -.78718 -.57498 675.812 1035.28)"/><rect x="176" y="876" width="9" height="10" fill="#EAFFD0" rx="0" transform="matrix(-.12442 .93372 -1.02322 -.35842 1339.636 1025.083)"/><rect x="1262" y="261" width="6" height="12" fill="#95E1D3" rx="0" transform="matrix(.44878 .99449 -.92641 .17535 1007.152 -860.06)"/><rect x="235" y="953" width="8" height="22" fill="#EAFFD0" rx="0" transform="matrix(-.01893 1.0055 -.99452 0 1080.795 748.803)"/><rect x="429" y="897" width="7" height="9" fill="#95E1D3" rx="0" transform="matrix(.21256 1 -1.01114 -.0524 1448.55 538.912)"/><rect x="793" y="61" width="6" height="15" fill="#95E1D3" rx="0" transform="matrix(.13516 1.0263 -.97437 0 733.085 -564.667)"/><rect x="1013" y="807" width="7" height="20" fill="#95E1D3" rx="0" transform="matrix(.90078 .76412 -.52566 .66424 702.774 -341.409)"/><rect x="791" y="750" width="9" height="26" fill="#FCE38A" rx="0" transform="matrix(1.08723 .54614 -.0911 .87401 239.812 -139.985)"/><rect x="1064" y="78" width="7" height="18" fill="#EAFFD0" rx="0" transform="matrix(-.18459 .88537 -1.0229 -.51117 1397.654 -586.76)"/><rect x="1335" y="949" width="6" height="10" fill="#FCE38A" rx="0" transform="matrix(-.65623 .60264 -.78851 -.79973 3221.729 840.489)"/><rect x="876" y="703" width="5" height="8" fill="#95E1D3" rx="0" transform="matrix(.82514 .56227 -.55517 .8336 610.724 -468.65)"/><rect x="490" y="593" width="7" height="9" fill="#FCE38A" rx="0" transform="matrix(-.87525 .63018 -.506 -.77821 1167.686 725.623)"/><rect x="829" y="890" width="8" height="8" fill="#f38181" rx="0" transform="matrix(.31244 .98496 -.96018 .17367 1570.435 -96.275)"/><rect x="21" y="764" width="5" height="13" fill="#95E1D3" rx="0" transform="matrix(-.60597 .60092 -.83008 -.8271 758.821 1398.647)"/><rect x="304" y="371" width="9" height="21" fill="#EAFFD0" rx="0" transform="matrix(-.82258 .68575 -.57613 -.73538 769.872 418.068)"/><rect x="1290" y="818" width="9" height="16" fill="#95E1D3" rx="0" transform="matrix(-.6042 .74136 -.7654 -.71592 2547.407 780.416)"/><rect x="1416" y="547" width="7" height="13" fill="#f38181" rx="0" transform="matrix(.98236 .07014 -.20868 1.00306 126.426 -250.453)"/><rect x="465" y="223" width="8" height="13" fill="#95E1D3" rx="0" transform="matrix(0 .9994 -1.00061 .0349 690.626 -247.224)"/><rect x="418" y="619" width="8" height="21" fill="#95E1D3" rx="0" transform="matrix(.04935 1.01231 -.98698 .01767 936.976 258.02)"/><rect x="659" y="646" width="6" height="6" fill="#FCE38A" rx="0" transform="matrix(.56375 .92955 -.83649 .39457 870.565 -129.401)"/><rect x="925" y="310" width="8" height="22" fill="#95E1D3" rx="0" transform="matrix(-.14425 .92244 -1.01373 -.4499 1435.263 -177.048)"/><rect x="1059" y="235" width="5" height="5" fill="#FCE38A" rx="0" transform="matrix(-.74872 .57366 -.6739 -.81928 2043.229 -158.337)"/><rect x="739" y="679" width="9" height="13" fill="#f38181" rx="0" transform="matrix(.95366 .73415 -.47282 .6846 573.792 -264.586)"/><rect x="849" y="694" width="8" height="14" fill="#FCE38A" rx="0" transform="matrix(-.57183 .8121 -.8159 -.59003 1858.482 496.512)"/><rect x="691" y="664" width="5" height="12" fill="#FCE38A" rx="0" transform="matrix(.44468 .811 -.90998 .58922 929.476 -335.695)"/><rect x="1314" y="821" width="5" height="10" fill="#95E1D3" rx="0" transform="matrix(.94511 .46249 -.30733 .90768 288.338 -276.71)"/><rect x="1337" y="689" width="5" height="9" fill="#FCE38A" rx="0" transform="matrix(-1.00647 -.05285 -.28318 -1.00844 3055.443 1651.903)"/><rect x="1257" y="155" width="6" height="13" fill="#f38181" rx="0" transform="matrix(1.05036 .73826 -.3402 .71293 121.208 -592.954)"/><rect x="696" y="394" width="6" height="16" fill="#FCE38A" rx="0" transform="matrix(-.06918 .9939 -.99763 -.12204 1186.81 -280.316)"/><rect x="632" y="633" width="6" height="12" fill="#EAFFD0" rx="0" transform="matrix(1.11338 .59141 -.0402 .8768 167.53 -78.18)"/><rect x="316" y="10" width="6" height="15" fill="#FCE38A" rx="0" transform="matrix(.95769 .10531 -.38365 1.002 23.643 -72.798)"/><rect x="1197" y="773" width="6" height="17" fill="#95E1D3" rx="0" transform="matrix(.99902 .71316 -.33089 .76477 421.158 -305.083)"/><rect x="1453" y="65" width="6" height="7" fill="#EAFFD0" rx="0" transform="matrix(-.79864 .55996 -.60182 -.83018 2660.038 -613.63)"/><rect x="1327" y="320" width="7" height="20" fill="#EAFFD0" rx="0" transform="matrix(-.8389 .34842 -.5652 -.95728 2664.033 440.95)"/><rect x="1114" y="302" width="7" height="14" fill="#FCE38A" rx="0" transform="matrix(.14007 .97758 -1.05786 -.24374 1407.408 -570.921)"/><rect x="1303" y="531" width="5" height="9" fill="#FCE38A" rx="0" transform="matrix(-.24421 .99163 -.97412 -.13936 2050.312 -616.021)"/><rect x="142" y="141" width="5" height="12" fill="#EAFFD0" rx="0" transform="matrix(.29341 1.00413 -.98051 .05262 291.623 -21.02)"/><rect x="168" y="144" width="6" height="11" fill="#FCE38A" rx="0" transform="matrix(.73906 .8388 -.71223 .54472 187.63 -78.355)"/><rect x="653" y="11" width="5" height="13" fill="#f38181" rx="0" transform="matrix(-.22222 .95853 -.93964 -.44697 787.748 -377.288)"/><rect x="401" y="480" width="8" height="13" fill="#95E1D3" rx="0" transform="matrix(1.02935 .2087 .05126 .98188 55.206 -40.28)"/><rect x="1405" y="396" width="6" height="11" fill="#FCE38A" rx="0" transform="matrix(-.83342 .32557 -.65114 -.94552 2981.13 322.726)"/><rect x="877" y="319" width="5" height="8" fill="#EAFFD0" rx="0" transform="matrix(-.76878 .73415 -.64522 -.6846 1755.458 -178.502)"/><rect x="655" y="901" width="5" height="5" fill="#95E1D3" rx="0" transform="matrix(-.77606 .50375 -.64092 -.87253 1982.757 1279.88)"/><rect x="498" y="163" width="7" height="20" fill="#FCE38A" rx="0" transform="matrix(-1.00369 -.03498 -.1579 -1.00183 1057.715 398.93)"/><rect x="1263" y="258" width="7" height="13" fill="#95E1D3" rx="0" transform="matrix(-1.03885 .27989 .05007 -.9761 2562.44 -55.122)"/><rect x="700" y="981" width="9" height="14" fill="#95E1D3" rx="0" transform="matrix(.73966 .50191 -.71127 .86933 739.42 -286.133)"/><rect x="1125" y="134" width="7" height="9" fill="#FCE38A" rx="0" transform="matrix(-.67317 .65646 -.74893 -.75517 2007.597 -537.131)"/><rect x="236" y="709" width="5" height="14" fill="#95E1D3" rx="0" transform="matrix(-.91818 .07335 -.5034 -1.0489 915.345 1527.013)"/><rect x="486" y="395" width="7" height="18" fill="#95E1D3" rx="0" transform="matrix(-.58509 .7435 -.7599 -.7435 983.623 499.48)"/><rect x="1467" y="668" width="9" height="11" fill="#EAFFD0" rx="0" transform="matrix(-.16697 .89155 -1.03657 -.45427 2623.183 -281.08)"/><rect x="1032" y="253" width="8" height="21" fill="#FCE38A" rx="0" transform="matrix(-.94844 .12508 -.27079 -1.01865 2054.785 641.517)"/><rect x="137" y="491" width="9" height="11" fill="#EAFFD0" rx="0" transform="matrix(-.12094 .92846 -1.0282 -.37512 828.024 543.955)"/><rect x="318" y="908" width="5" height="12" fill="#95E1D3" rx="0" transform="matrix(-.99863 .06985 -.03489 -.99893 688.11 1787.84)"/><rect x="547" y="434" width="9" height="12" fill="#95E1D3" rx="0" transform="matrix(-.68022 .74598 -.72804 -.67169 1195.662 372.382)"/><rect x="276" y="496" width="5" height="13" fill="#FCE38A" rx="0" transform="matrix(-.79526 .40829 -.66306 -.91704 935.58 873.967)"/><rect x="356" y="720" width="8" height="14" fill="#95E1D3" rx="0" transform="matrix(-.91858 .74047 -.4939 -.6905 931.622 905.406)"/><rect x="487" y="109" width="6" height="11" fill="#95E1D3" rx="0" transform="matrix(.78128 .70808 -.631 .70808 193.49 -339.212)"/><rect x="48" y="288" width="8" height="14" fill="#95E1D3" rx="0" transform="matrix(.12188 .98784 -.993 .15646 323.092 198.385)"/><rect x="302" y="21" width="9" height="18" fill="#f38181" rx="0" transform="matrix(-.98866 -.21338 .03516 -1.00388 603.19 196.279)"/><rect x="673" y="28" width="6" height="10" fill="#FCE38A" rx="0" transform="matrix(-.24558 1.00367 -.99206 -.01752 878.427 -704.043)"/><rect x="670" y="300" width="6" height="10" fill="#f38181" rx="0" transform="matrix(-.96663 .10467 -.3568 -.99589 1514.832 503.03)"/><rect x="456" y="921" width="7" height="18" fill="#95E1D3" rx="0" transform="matrix(.76783 1.03051 -.79312 .23791 1095.52 393.438)"/><rect x="1099" y="125" width="6" height="9" fill="#f38181" rx="0" transform="matrix(.82826 1.02451 -.78485 .23653 439.955 -672.082)"/><rect x="802" y="144" width="8" height="9" fill="#EAFFD0" rx="0" transform="matrix(-.96541 -.07294 -.09687 -1.04314 1550.019 608.619)"/><rect x="985" y="785" width="8" height="14" fill="#95E1D3" rx="0" transform="matrix(-1.0843 -.25586 -.4405 -1.0262 2800.214 2198.341)"/><rect x="620" y="794" width="8" height="16" fill="#95E1D3" rx="0" transform="matrix(-.93077 .15653 -.51192 -.98829 1883.028 1518.725)"/><rect x="17" y="383" width="5" height="14" fill="#95E1D3" rx="0" transform="matrix(-.32487 .90099 -.95144 -.43944 472.441 542.45)"/><rect x="245" y="64" width="5" height="9" fill="#f38181" rx="0" transform="matrix(-.8913 .50069 -.4535 -.86721 490.597 16.955)"/><rect x="443" y="515" width="7" height="17" fill="#EAFFD0" rx="0" transform="matrix(-.40577 .87676 -.91564 -.486 1184.987 355.224)"/><rect x="33" y="925" width="5" height="6" fill="#f38181" rx="0" transform="matrix(.48966 .89657 -.855 .47671 680.263 460.04)"/><rect x="369" y="436" width="7" height="17" fill="#FCE38A" rx="0" transform="matrix(.64289 .77715 -.76616 .62932 481.343 -124.72)"/><rect x="1331" y="336" width="8" height="16" fill="#EAFFD0" rx="0" transform="matrix(-.01867 1.0069 -.9925 -.03516 1647.964 -824.193)"/><rect x="1303" y="948" width="8" height="18" fill="#f38181" rx="0" transform="matrix(-.36769 .71802 -1.02504 -.71802 3109.03 936.154)"/><rect x="1350" y="301" width="6" height="16" fill="#f38181" rx="0" transform="matrix(1.00833 .29525 -.0889 .9657 51.1 -198.717)"/><rect x="1178" y="32" width="8" height="21" fill="#95E1D3" rx="0" transform="matrix(.5952 1.03528 -.96593 0 636.241 -864.48)"/><rect x="67" y="96" width="7" height="7" fill="#95E1D3" rx="0" transform="matrix(-.2767 .97758 -.95394 -.24374 167.795 63.489)"/><rect x="1173" y="378" width="7" height="9" fill="#FCE38A" rx="0" transform="matrix(.0349 .99756 -.9994 .08728 1517.708 -886.172)"/><rect x="54" y="472" width="8" height="18" fill="#FCE38A" rx="0" transform="matrix(.9974 .93172 -.56509 .47473 434.007 216.346)"/><rect x="119" y="96" width="6" height="16" fill="#95E1D3" rx="0" transform="matrix(.8433 .75636 -.50775 .7304 64.395 -24.598)"/><rect x="1085" y="76" width="8" height="23" fill="#f38181" rx="0" transform="matrix(.87277 .70883 -.538 .70883 189.097 -822.593)"/><rect x="1397" y="62" width="9" height="17" fill="#FCE38A" rx="0" transform="matrix(-.97815 .32801 -.20791 -.95262 2787.032 -494.133)"/><rect x="487" y="553" width="7" height="8" fill="#FCE38A" rx="0" transform="matrix(-.99726 .49229 -.23222 -.88811 1059.552 723.723)"/><rect x="290" y="481" width="7" height="12" fill="#FCE38A" rx="0" transform="matrix(.87556 .4232 -.48531 .90755 264.638 -94.568)"/><rect x="452" y="633" width="6" height="6" fill="#f38181" rx="0" transform="matrix(.91274 .60328 -.44634 .80059 405.57 -115.85)"/><rect x="1207" y="167" width="9" height="11" fill="#FCE38A" rx="0" transform="matrix(.23256 .99817 -1.0181 -.0698 1162.932 -982.439)"/><rect x="225" y="347" width="7" height="13" fill="#FCE38A" rx="0" transform="matrix(-.88991 .14283 -.66909 -1.01632 792.571 732.884)"/><rect x="38" y="95" width="6" height="14" fill="#FCE38A" rx="0" transform="matrix(-.61586 .82115 -.78657 -.57498 133.604 129.847)"/><rect x="718" y="470" width="5" height="11" fill="#95E1D3" rx="0" transform="matrix(-.66025 .67005 -.75914 -.74416 1593.075 384.34)"/><rect x="639" y="531" width="9" height="10" fill="#95E1D3" rx="0" transform="matrix(-.74511 .90475 -.72562 -.461 1444.99 87.419)"/><rect x="566" y="898" width="6" height="13" fill="#EAFFD0" rx="0" transform="matrix(-.47272 .83937 -.87251 -.56616 1830.214 848.872)"/><rect x="1005" y="720" width="5" height="13" fill="#f38181" rx="0" transform="matrix(.87515 .9176 -.6817 .42789 926.144 -349.274)"/><rect x="1033" y="972" width="9" height="18" fill="#95E1D3" rx="0" transform="matrix(.18419 1.00107 -1.00859 -.05246 2113.57 -78.69)"/><rect x="204" y="186" width="7" height="17" fill="#f38181" rx="0" transform="matrix(.92718 .22776 -.3746 .98652 87.97 -77.501)"/><rect x="1282" y="74" width="9" height="26" fill="#f38181" rx="0" transform="matrix(.99304 .6019 -.34358 .79876 72.312 -734.389)"/><rect x="535" y="240" width="7" height="17" fill="#95E1D3" rx="0" transform="matrix(.12678 .98769 -1.03255 -.15643 798.072 -244.496)"/><rect x="419" y="620" width="7" height="14" fill="#FCE38A" rx="0" transform="matrix(1.00456 .19154 -.05289 .98538 66.03 -34.792)"/><rect x="948" y="97" width="7" height="9" fill="#EAFFD0" rx="0" transform="matrix(-.97395 .24207 -.22476 -.97089 1893.963 2.943)"/><rect x="1213" y="125" width="8" height="19" fill="#95E1D3" rx="0" transform="matrix(.63925 .79235 -.76263 .61905 523.254 -785.142)"/><rect x="187" y="276" width="7" height="12" fill="#FCE38A" rx="0" transform="matrix(.12228 .99878 -.99481 .05234 472.123 73.646)"/><rect x="16" y="635" width="8" height="9" fill="#EAFFD0" rx="0" transform="matrix(-.98955 -.03555 -.2098 -1.0181 207.67 1295.171)"/><rect x="400" y="174" width="6" height="13" fill="#95E1D3" rx="0" transform="matrix(.86518 .47012 -.49997 .88416 126.939 -147.427)"/><rect x="795" y="393" width="8" height="20" fill="#f38181" rx="0" transform="matrix(.34227 .95689 -.94041 .29255 912.033 -451.55)"/><rect x="544" y="680" width="9" height="20" fill="#f38181" rx="0" transform="matrix(.97768 .90093 -.5455 .52015 631.599 -5.781)"/><rect x="276" y="955" width="9" height="14" fill="#95E1D3" rx="0" transform="matrix(.8167 .86189 -.66951 .51788 942.69 251.526)"/><rect x="1263" y="19" width="5" height="12" fill="#EAFFD0" rx="0" transform="matrix(-.22335 .98703 -.96972 -.19186 1564.842 -1352.305)"/><rect x="853" y="749" width="5" height="6" fill="#f38181" rx="0" transform="matrix(-.96227 -.01835 -.63396 -1.0513 2490.115 1836.247)"/><rect x="884" y="852" width="6" height="10" fill="#f38181" rx="0" transform="matrix(-.15627 .98721 -.9854 -.17407 1821.931 192.547)"/><rect x="917" y="123" width="6" height="12" fill="#FCE38A" rx="0" transform="matrix(-.22673 .99315 -.97906 -.12194 1232.249 -736.841)"/><rect x="919" y="242" width="5" height="14" fill="#95E1D3" rx="0" transform="matrix(.31718 1.0292 -.98825 -.05394 934.078 -456.223)"/><rect x="1252" y="395" width="6" height="16" fill="#EAFFD0" rx="0" transform="matrix(.85853 .84465 -.53697 .6365 423.101 -481.415)"/><rect x="1091" y="716" width="8" height="13" fill="#f38181" rx="0" transform="matrix(-.96124 .0535 -.34814 -1.02094 2482.667 1634.29)"/><rect x="633" y="538" width="5" height="10" fill="#FCE38A" rx="0" transform="matrix(1.00376 .61526 -.2933 .81648 264.273 -156.265)"/><rect x="473" y="24" width="5" height="7" fill="#95E1D3" rx="0" transform="matrix(.12339 .96126 -1.00492 .27564 440.108 -437.16)"/><rect x="1217" y="766" width="5" height="7" fill="#FCE38A" rx="0" transform="matrix(-.7488 .49388 -.6739 -.89099 2686.375 1089.872)"/><rect x="705" y="180" width="6" height="17" fill="#FCE38A" rx="0" transform="matrix(1.0003 .05234 -.01741 .99878 12.296 -49.188)"/><rect x="103" y="932" width="8" height="10" fill="#EAFFD0" rx="0" transform="matrix(-.82364 .73147 -.59907 -.6821 591.565 1495.995)"/><rect x="1280" y="454" width="9" height="16" fill="#95E1D3" rx="0" transform="matrix(.48323 .98188 -.91574 .2087 1198.509 -783.273)"/><rect x="447" y="497" width="8" height="12" fill="#95E1D3" rx="0" transform="matrix(.96826 .65114 -.29646 .83342 186.426 -54.58)"/><rect x="402" y="714" width="7" height="15" fill="#EAFFD0" rx="0" transform="matrix(1.00594 .13936 -.01781 .99163 62.383 -29.22)"/><rect x="435" y="592" width="9" height="9" fill="#FCE38A" rx="0" transform="matrix(.33803 .91858 -.93814 .40898 737.212 -4.976)"/><rect x="330" y="103" width="9" height="24" fill="#95E1D3" rx="0" transform="matrix(.67826 .73685 -.72465 .68712 200.034 -251.565)"/><rect x="57" y="676" width="9" height="13" fill="#FCE38A" rx="0" transform="matrix(1.107 .45604 .07689 .93501 128.544 33.94)"/><rect x="232" y="302" width="6" height="8" fill="#EAFFD0" rx="0" transform="matrix(.9575 .58922 -.37928 .811 220.135 -97.063)"/><rect x="242" y="752" width="7" height="11" fill="#EAFFD0" rx="0" transform="matrix(.17655 1.01168 -1.02278 -.19665 1077.433 719.306)"/><rect x="627" y="441" width="8" height="13" fill="#f38181" rx="0" transform="matrix(-.97652 -.01807 -.59834 -1.03512 1727.244 1091.192)"/><rect x="852" y="211" width="8" height="11" fill="#f38181" rx="0" transform="matrix(-.84318 .45845 -.52642 -.89976 1674.08 139.167)"/><rect x="403" y="922" width="7" height="15" fill="#EAFFD0" rx="0" transform="matrix(.15595 .99832 -.9853 .10493 1225.235 461.716)"/><rect x="646" y="501" width="7" height="15" fill="#EAFFD0" rx="0" transform="matrix(-.9028 .20906 -.53608 -.98354 1641.619 941.11)"/><rect x="494" y="462" width="6" height="17" fill="#FCE38A" rx="0" transform="matrix(-.77467 .49388 -.62724 -.89099 1167.224 740.857)"/><rect x="678" y="358" width="6" height="6" fill="#FCE38A" rx="0" transform="matrix(-.0525 .9927 -1.00091 -.12189 1097.625 -259.138)"/><rect x="1377" y="845" width="6" height="12" fill="#FCE38A" rx="0" transform="matrix(.44657 .9855 -.9198 .20947 1671.774 -517.8)"/><rect x="604" y="624" width="5" height="5" fill="#EAFFD0" rx="0" transform="matrix(1.1166 .52654 -.04084 .87632 200.313 -112.946)"/><rect x="573" y="758" width="9" height="15" fill="#95E1D3" rx="0" transform="matrix(.76726 .97887 -.7574 .33705 909.797 96.928)"/><rect x="657" y="413" width="5" height="12" fill="#f38181" rx="0" transform="matrix(.9835 .37829 -.20923 .9363 116.412 -130.102)"/><rect x="741" y="269" width="5" height="5" fill="#f38181" rx="0" transform="matrix(-.54856 .73314 -.85245 -.68366 1437.527 -139.965)"/><rect x="1207" y="188" width="6" height="11" fill="#EAFFD0" rx="0" transform="matrix(.59283 .82936 -.79064 .58073 598.381 -730.754)"/><rect x="1350" y="10" width="8" height="17" fill="#FCE38A" rx="0" transform="matrix(.734 .8151 -.69357 .5922 327.812 -1262.341)"/><rect x="517" y="968" width="9" height="15" fill="#f38181" rx="0" transform="matrix(-.3597 .85437 -.93687 -.55483 1641.792 1172.556)"/><rect x="1056" y="943" width="8" height="13" fill="#EAFFD0" rx="0" transform="matrix(-.89133 .58787 -.47423 -.80914 2340.78 1076.129)"/><rect x="437" y="90" width="8" height="17" fill="#95E1D3" rx="0" transform="matrix(-.38916 .9582 -.91718 -.31134 704.51 -347.547)"/><rect x="882" y="654" width="6" height="16" fill="#95E1D3" rx="0" transform="matrix(.60083 .74724 -.79727 .67282 890.993 -537.728)"/><rect x="1177" y="202" width="5" height="9" fill="#f38181" rx="0" transform="matrix(-.83486 .28289 -.62346 -.98655 2360.257 348.865)"/><rect x="216" y="873" width="7" height="14" fill="#FCE38A" rx="0" transform="matrix(.33932 .99572 -.9566 .13994 1248.823 515.222)"/><rect x="238" y="307" width="7" height="20" fill="#FCE38A" rx="0" transform="matrix(1.11713 .56131 -.06131 .86435 106.475 -32.342)"/><rect x="1018" y="714" width="8" height="12" fill="#EAFFD0" rx="0" transform="matrix(.07335 .9703 -1.0489 -.24192 1936.19 -97.458)"/><rect x="461" y="707" width="9" height="16" fill="#95E1D3" rx="0" transform="matrix(.82534 .4551 -.5775 .89318 446.49 -168.025)"/><rect x="1020" y="273" width="5" height="9" fill="#95E1D3" rx="0" transform="matrix(.48222 1.0189 -.87013 .23523 760.596 -516.982)"/><rect x="1044" y="258" width="7" height="20" fill="#f38181" rx="0" transform="matrix(-.27336 .78913 -1.04585 -.63903 1735.435 -202.656)"/><rect x="1203" y="212" width="5" height="10" fill="#EAFFD0" rx="0" transform="matrix(.84654 .47671 -.50558 .89657 295.246 -764.796)"/><rect x="726" y="689" width="5" height="12" fill="#EAFFD0" rx="0" transform="matrix(-.9071 .09218 -.48041 -1.0536 1789.348 1610.94)"/><rect x="156" y="662" width="6" height="14" fill="#95E1D3" rx="0" transform="matrix(.95146 .7862 -.47358 .6597 461.721 139.367)"/><rect x="531" y="386" width="9" height="20" fill="#EAFFD0" rx="0" transform="matrix(-.22495 .98616 -.97437 -.17389 1041.812 -91.294)"/><rect x="801" y="673" width="6" height="16" fill="#95E1D3" rx="0" transform="matrix(-.76759 .54764 -.64404 -.84329 1873.093 899.483)"/><rect x="1170" y="687" width="9" height="14" fill="#f38181" rx="0" transform="matrix(.76197 .9141 -.68883 .48603 845.864 -402.205)"/><rect x="1295" y="645" width="7" height="20" fill="#FCE38A" rx="0" transform="matrix(-.29405 .81965 -1.01414 -.57393 2558.696 11.949)"/><rect x="514" y="714" width="6" height="8" fill="#FCE38A" rx="0" transform="matrix(.02029 .96823 -1.02661 .29602 1165.514 -76.997)"/><rect x="129" y="694" width="9" height="12" fill="#FCE38A" rx="0" transform="matrix(1.04303 .22842 .13998 .9894 36.908 .465)"/><rect x="21" y="908" width="6" height="10" fill="#f38181" rx="0" transform="matrix(-.68751 .8322 -.7379 -.56133 650.501 1403.42)"/><rect x="136" y="896" width="5" height="9" fill="#FCE38A" rx="0" transform="matrix(-.53064 .61716 -.94113 -.78993 1372.88 1536.044)"/><rect x="1012" y="824" width="9" height="22" fill="#95E1D3" rx="0" transform="matrix(.6177 .66618 -.79052 .76635 1037.256 -661.312)"/><rect x="895" y="125" width="7" height="18" fill="#95E1D3" rx="0" transform="matrix(.76843 .70754 -.64492 .70754 303.148 -565.156)"/><rect x="470" y="382" width="6" height="6" fill="#FCE38A" rx="0" transform="matrix(-.9828 .10478 -.1928 -.99695 1067.83 686.188)"/><rect x="868" y="480" width="7" height="19" fill="#FCE38A" rx="0" transform="matrix(-.38024 .72474 -1.0126 -.69988 1880.92 307.483)"/><rect x="1043" y="214" width="7" height="18" fill="#f38181" rx="0" transform="matrix(.90105 .66834 -.4597 .76884 228.412 -444.447)"/><rect x="1052" y="57" width="9" height="17" fill="#f38181" rx="0" transform="matrix(.50543 .93415 -.87648 .35859 592.494 -908.023)"/><rect x="813" y="363" width="7" height="18" fill="#95E1D3" rx="0" transform="matrix(-.90696 .33413 -.35881 -.97039 1591.683 648.67)"/><rect x="183" y="340" width="5" height="6" fill="#EAFFD0" rx="0" transform="matrix(-.94549 .31072 -.30842 -.9563 500.679 593.874)"/><rect x="187" y="470" width="7" height="13" fill="#f38181" rx="0" transform="matrix(.53525 1.0094 -.85724 .25167 515.556 218.913)"/><rect x="347" y="542" width="7" height="8" fill="#f38181" rx="0" transform="matrix(.212 .9742 -1.0913 -.29784 1071.582 435.295)"/><rect x="1146" y="790" width="8" height="17" fill="#f38181" rx="0" transform="matrix(-.5916 .87515 -.81473 -.4851 2414.557 139.272)"/><rect x="1216" y="829" width="9" height="11" fill="#95E1D3" rx="0" transform="matrix(.73098 .64367 -.68244 .7671 803.399 -527.277)"/><rect x="1224" y="143" width="8" height="13" fill="#EAFFD0" rx="0" transform="matrix(-.48305 .89441 -.87193 -.45572 1953.738 -988.14)"/><rect x="755" y="566" width="5" height="10" fill="#EAFFD0" rx="0" transform="matrix(.78832 .6887 -.60664 .73854 613.987 -478.857)"/><rect x="124" y="537" width="8" height="10" fill="#FCE38A" rx="0" transform="matrix(.68673 .57436 -.7603 .82028 357.793 17.184)"/><rect x="391" y="200" width="9" height="23" fill="#95E1D3" rx="0" transform="matrix(-.35796 .94798 -.91746 -.3639 681.528 -16.726)"/><rect x="1033" y="809" width="6" height="14" fill="#f38181" rx="0" transform="matrix(1.05547 .17495 .27005 .9922 28.633 -47.684)"/><rect x="826" y="883" width="5" height="7" fill="#FCE38A" rx="0" transform="matrix(.52992 .90374 -.84805 .44079 1141.257 -165.93)"/><rect x="258" y="533" width="9" height="15" fill="#EAFFD0" rx="0" transform="matrix(-.77799 .57436 -.62998 -.82028 816.9 846.846)"/><rect x="1071" y="680" width="8" height="15" fill="#EAFFD0" rx="0" transform="matrix(.36754 .99315 -.96177 .12194 1495.227 -426.434)"/></svg>